<svg width="160" height="63" viewBox="0 0 160 63" fill="none" xmlns="http://www.w3.org/2000/svg">
<path d="M89.544 27.045C89.848 27.4713 90 27.6845 90 28C90 28.3155 89.848 28.5287 89.544 28.955C88.1779 30.8706 84.6892 35 80 35C75.3108 35 71.8221 30.8706 70.456 28.955C70.152 28.5287 70 28.3155 70 28C70 27.6845 70.152 27.4713 70.456 27.045C71.8221 25.1294 75.3108 21 80 21C84.6892 21 88.1779 25.1294 89.544 27.045Z" stroke="black" stroke-width="1.5"/>
<path d="M83 28C83 26.3431 81.6569 25 80 25C78.3431 25 77 26.3431 77 28C77 29.6569 78.3431 31 80 31C81.6569 31 83 29.6569 83 28Z" stroke="black" stroke-width="1.5"/>
</svg>
