<svg width="24" height="24" viewBox="0 0 24 24" fill="none" xmlns="http://www.w3.org/2000/svg">
<path d="M2.42012 12.7138C2.28394 12.4981 2.21584 12.3903 2.17772 12.224C2.14909 12.0991 2.14909 11.9021 2.17772 11.7772C2.21584 11.6109 2.28394 11.5031 2.42012 11.2874C3.54553 9.50545 6.8954 5.00061 12.0004 5.00061C17.1054 5.00061 20.4553 9.50545 21.5807 11.2874C21.7169 11.5031 21.785 11.6109 21.8231 11.7772C21.8517 11.9021 21.8517 12.0991 21.8231 12.224C21.785 12.3903 21.7169 12.4981 21.5807 12.7138C20.4553 14.4958 17.1054 19.0006 12.0004 19.0006C6.8954 19.0006 3.54553 14.4958 2.42012 12.7138Z" stroke="url(#paint0_linear_159_204)" stroke-width="2" stroke-linecap="round" stroke-linejoin="round"/>
<path d="M12.0004 15.0006C13.6573 15.0006 15.0004 13.6575 15.0004 12.0006C15.0004 10.3438 13.6573 9.00061 12.0004 9.00061C10.3435 9.00061 9.0004 10.3438 9.0004 12.0006C9.0004 13.6575 10.3435 15.0006 12.0004 15.0006Z" stroke="url(#paint1_linear_159_204)" stroke-width="2" stroke-linecap="round" stroke-linejoin="round"/>
<defs>
<linearGradient id="paint0_linear_159_204" x1="-0.362696" y1="14.7594" x2="17.1132" y2="39.1989" gradientUnits="userSpaceOnUse">
<stop stop-color="#025BC3"/>
<stop offset="1" stop-color="#67D8FC"/>
</linearGradient>
<linearGradient id="paint1_linear_159_204" x1="-0.362696" y1="14.7594" x2="17.1132" y2="39.1989" gradientUnits="userSpaceOnUse">
<stop stop-color="#025BC3"/>
<stop offset="1" stop-color="#67D8FC"/>
</linearGradient>
</defs>
</svg>
