<svg width="24" height="24" viewBox="0 0 24 24" fill="none" xmlns="http://www.w3.org/2000/svg">
<path d="M14 11.0006H8M10 15.0006H8M16 7.00061H8M20 6.80061V17.2006C20 18.8808 20 19.7208 19.673 20.3626C19.3854 20.9271 18.9265 21.386 18.362 21.6736C17.7202 22.0006 16.8802 22.0006 15.2 22.0006H8.8C7.11984 22.0006 6.27976 22.0006 5.63803 21.6736C5.07354 21.386 4.6146 20.9271 4.32698 20.3626C4 19.7208 4 18.8808 4 17.2006V6.80061C4 5.12045 4 4.28037 4.32698 3.63864C4.6146 3.07415 5.07354 2.61521 5.63803 2.32759C6.27976 2.00061 7.11984 2.00061 8.8 2.00061H15.2C16.8802 2.00061 17.7202 2.00061 18.362 2.32759C18.9265 2.61521 19.3854 3.07415 19.673 3.63864C20 4.28037 20 5.12045 20 6.80061Z" stroke="url(#paint0_linear_1_1512)" stroke-width="2" stroke-linecap="round" stroke-linejoin="round"/>
<defs>
<linearGradient id="paint0_linear_1_1512" x1="1.95294" y1="15.9418" x2="27.6603" y2="36.393" gradientUnits="userSpaceOnUse">
<stop stop-color="#025BC3"/>
<stop offset="1" stop-color="#67D8FC"/>
</linearGradient>
</defs>
</svg>
