<svg width="34" height="38" viewBox="0 0 34 38" fill="none" xmlns="http://www.w3.org/2000/svg">
<path d="M31.6001 15.6668H1.6001M23.2668 2.3335V9.00016M9.93343 2.3335V9.00016M11.6001 25.6668L14.9334 29.0002L22.4334 21.5002M9.6001 35.6668H23.6001C26.4004 35.6668 27.8005 35.6668 28.87 35.1219C29.8109 34.6425 30.5758 33.8776 31.0551 32.9368C31.6001 31.8672 31.6001 30.4671 31.6001 27.6668V13.6668C31.6001 10.8666 31.6001 9.46644 31.0551 8.39688C30.5758 7.45607 29.8109 6.69116 28.87 6.2118C27.8005 5.66683 26.4004 5.66683 23.6001 5.66683H9.6001C6.79984 5.66683 5.3997 5.66683 4.33015 6.2118C3.38933 6.69116 2.62443 7.45607 2.14507 8.39688C1.6001 9.46644 1.6001 10.8666 1.6001 13.6668V27.6668C1.6001 30.4671 1.6001 31.8672 2.14507 32.9368C2.62443 33.8776 3.38933 34.6425 4.33015 35.1219C5.3997 35.6668 6.79983 35.6668 9.6001 35.6668Z" stroke="url(#paint0_linear_204_2166)" stroke-width="3" stroke-linecap="round" stroke-linejoin="round"/>
<defs>
<linearGradient id="paint0_linear_204_2166" x1="-2.23814" y1="25.5688" x2="41.4639" y2="64.6814" gradientUnits="userSpaceOnUse">
<stop stop-color="#025BC3"/>
<stop offset="1" stop-color="#67D8FC"/>
</linearGradient>
</defs>
</svg>
