<svg width="20" height="22" viewBox="0 0 20 22" fill="none" xmlns="http://www.w3.org/2000/svg">
<path d="M14 5.00061V4.20061C14 3.08051 14 2.52045 13.782 2.09263C13.5903 1.71631 13.2843 1.41034 12.908 1.2186C12.4802 1.00061 11.9201 1.00061 10.8 1.00061H9.2C8.07989 1.00061 7.51984 1.00061 7.09202 1.2186C6.71569 1.41034 6.40973 1.71631 6.21799 2.09263C6 2.52045 6 3.08051 6 4.20061V5.00061M8 10.5006V15.5006M12 10.5006V15.5006M1 5.00061H19M17 5.00061V16.2006C17 17.8808 17 18.7208 16.673 19.3626C16.3854 19.9271 15.9265 20.386 15.362 20.6736C14.7202 21.0006 13.8802 21.0006 12.2 21.0006H7.8C6.11984 21.0006 5.27976 21.0006 4.63803 20.6736C4.07354 20.386 3.6146 19.9271 3.32698 19.3626C3 18.7208 3 17.8808 3 16.2006V5.00061" stroke="#FE0808" stroke-width="2" stroke-linecap="round" stroke-linejoin="round"/>
</svg>
