<svg width="363" height="200" viewBox="0 0 363 200" fill="none" xmlns="http://www.w3.org/2000/svg">
<rect y="0.00012207" width="362.667" height="200" rx="16" fill="#F2F2F2"/>
<g clip-path="url(#clip0_363_5443)">
<path d="M108.781 135.931V127.222H110.296V135.931H108.781Z" fill="#141414"/>
<path d="M121.043 128.546V135.94H119.528V128.546H116.703V127.222H123.878V128.546H121.033H121.043Z" fill="#141414"/>
<path d="M144.791 128.057L144.167 129.351C143.194 128.774 142.222 128.545 141.546 128.545C140.666 128.545 140.083 128.873 140.083 129.451C140.083 131.352 144.924 130.336 144.904 133.472C144.904 135.025 143.491 135.99 141.526 135.99C140.113 135.99 138.782 135.432 137.861 134.606L138.516 133.342C139.438 134.158 140.594 134.606 141.546 134.606C142.6 134.606 143.225 134.218 143.225 133.551C143.225 131.611 138.383 132.695 138.383 129.59C138.383 128.097 139.704 127.162 141.649 127.162C142.816 127.162 143.951 127.52 144.781 128.057H144.791Z" fill="#141414"/>
<path d="M160.544 131.582C160.544 134.07 158.466 136.001 155.794 136.001C153.123 136.001 151.045 134.07 151.045 131.582C151.045 129.094 153.123 127.193 155.794 127.193C158.466 127.193 160.544 129.094 160.544 131.582ZM152.58 131.582C152.58 133.314 154.054 134.677 155.805 134.677C157.555 134.677 158.988 133.304 158.988 131.582C158.988 129.86 157.555 128.507 155.805 128.507C154.054 128.507 152.58 129.85 152.58 131.582Z" fill="#141414"/>
<path d="M172.661 134.597V135.931H167.277V127.222H168.792V134.597H172.671H172.661Z" fill="#141414"/>
<path d="M186.838 132.328C186.838 134.607 185.364 136 182.949 136C180.533 136 179.049 134.607 179.049 132.328V127.222H180.564V132.328C180.564 133.801 181.495 134.676 182.969 134.676C184.443 134.676 185.334 133.801 185.334 132.328V127.222H186.848V132.328H186.838Z" fill="#141414"/>
<path d="M197.402 128.546V135.94H195.887V128.546H193.062V127.222H200.238V128.546H197.392H197.402Z" fill="#141414"/>
<path d="M206.654 135.931V127.222H208.169V135.931H206.654Z" fill="#141414"/>
<path d="M224.393 131.582C224.393 134.07 222.315 136.001 219.644 136.001C216.972 136.001 214.895 134.07 214.895 131.582C214.895 129.094 216.972 127.193 219.644 127.193C222.315 127.193 224.393 129.094 224.393 131.582ZM216.43 131.582C216.43 133.314 217.904 134.677 219.654 134.677C221.404 134.677 222.837 133.304 222.837 131.582C222.837 129.86 221.404 128.507 219.654 128.507C217.904 128.507 216.43 129.85 216.43 131.582Z" fill="#141414"/>
<path d="M237.402 135.931L232.632 129.68V135.931H231.117V127.222H232.601L237.402 133.482V127.222H238.886V135.931H237.402Z" fill="#141414"/>
<path d="M252.457 128.057L251.833 129.351C250.86 128.774 249.888 128.545 249.212 128.545C248.332 128.545 247.749 128.873 247.749 129.451C247.749 131.352 252.59 130.336 252.57 133.472C252.57 135.025 251.157 135.99 249.192 135.99C247.779 135.99 246.448 135.432 245.527 134.606L246.182 133.342C247.104 134.158 248.26 134.606 249.212 134.606C250.256 134.606 250.891 134.218 250.891 133.551C250.891 131.611 246.049 132.695 246.049 129.59C246.049 128.097 247.37 127.162 249.314 127.162C250.482 127.162 251.617 127.52 252.447 128.057H252.457Z" fill="#141414"/>
<path d="M157.402 103.264C164.4 103.264 170.074 97.7477 170.074 90.9425C170.074 84.1374 164.4 78.6207 157.402 78.6207C150.404 78.6207 144.73 84.1374 144.73 90.9425C144.73 97.7477 150.404 103.264 157.402 103.264Z" fill="#35AFE5"/>
<path d="M225.357 100.896C232.356 100.896 238.029 95.3794 238.029 88.5742C238.029 81.7691 232.356 76.2524 225.357 76.2524C218.359 76.2524 212.686 81.7691 212.686 88.5742C212.686 95.3794 218.359 100.896 225.357 100.896Z" fill="#37C116"/>
<path d="M82.9073 104.898H70.8497C67.687 104.898 65.0871 104.032 63.0502 102.3C61.0133 100.568 60 98.0902 60 94.8753V74.1333C60 70.9184 61.0133 68.4401 63.0502 66.7083C65.0871 64.9765 67.687 64.1106 70.8497 64.1106H82.9073V67.9325H70.819C68.6286 67.9325 67.0933 68.3605 66.2233 69.2065C64.8414 70.6198 64.1454 72.0332 64.1454 73.4465V82.2549H78.2194V86.1764H64.1454V95.582C64.1454 96.9953 64.8414 98.3987 66.2233 99.812C67.1035 100.658 68.6286 101.076 70.819 101.076H82.9073V104.898Z" fill="#141414"/>
<path d="M112.53 104.897H108.385V87.2303C108.385 84.6823 107.423 82.4927 105.509 80.6514C103.584 78.8101 101.343 77.8944 98.7839 77.8944C96.2251 77.8944 93.9323 78.8101 92.008 80.6514C90.0837 82.4927 89.1318 84.6823 89.1318 87.2303V104.897H84.9863V87.6583C84.9863 83.7368 86.2965 80.4722 88.9168 77.8745C91.5371 75.2767 94.8228 73.9729 98.7942 73.9729C102.766 73.9729 106 75.2767 108.61 77.8745C111.23 80.4722 112.54 83.7368 112.54 87.6583V104.897H112.53Z" fill="#141414"/>
<path d="M128.242 105.535C120.678 105.535 116.891 102.4 116.891 96.1393V64.0409H121.036V74.601H128.242V78.3633H121.036V95.4426C121.036 99.9314 123.441 102.181 128.242 102.181V105.525V105.535Z" fill="#141414"/>
<path d="M144.117 78.1031C142.192 78.1728 140.626 78.6903 139.429 79.6458C138.231 80.6013 137.412 81.4274 136.972 82.144C136.276 83.3085 135.938 84.8711 135.938 86.812V104.907H131.578V74.6693H135.447V78.969C136.317 77.3467 137.606 76.0826 139.316 75.2068C140.882 74.3906 142.479 74.0224 144.117 74.0921V78.123V78.1031Z" fill="#141414"/>
<path d="M174.997 89.7781C174.997 94.1276 173.37 97.8898 170.115 101.055C166.861 104.22 162.991 105.733 158.518 105.593C154.188 105.484 150.525 103.891 147.525 100.816C144.526 97.7405 143.021 94.0778 143.021 89.8378C143.021 85.5979 144.639 81.6266 147.873 78.4616C151.108 75.2965 154.966 73.7836 159.439 73.923C163.769 74.0623 167.444 75.6847 170.463 78.7801C173.483 81.8755 174.988 85.5481 174.988 89.788L174.997 89.7781ZM170.852 89.4596C170.74 86.2647 169.563 83.5276 167.321 81.2584C165.08 78.9891 162.367 77.8445 159.204 77.8445C155.888 77.8047 153.063 78.9393 150.729 81.2285C148.395 83.5177 147.208 86.2846 147.177 89.5193C147.106 92.7143 148.18 95.5111 150.401 97.9097C152.623 100.308 155.345 101.562 158.549 101.662C161.978 101.841 164.905 100.687 167.321 98.1984C169.747 95.7101 170.924 92.7939 170.852 89.4596Z" fill="#141414"/>
<path d="M214.671 104.9H202.613C199.409 104.9 196.789 104.034 194.752 102.302C192.715 100.57 191.691 98.0722 191.691 94.8175V64.0428H195.837V95.5142C195.837 96.9276 196.533 98.321 197.915 99.7044C198.795 100.55 200.341 100.978 202.562 100.978H214.65V104.9H214.671Z" fill="#141414"/>
<path d="M243.586 89.7183V104.887H239.44V100.169C236.072 103.921 231.937 105.723 227.045 105.583C222.766 105.444 219.132 103.832 216.123 100.756C213.114 97.6808 211.609 94.0181 211.609 89.7781C211.609 85.5381 213.227 81.5668 216.461 78.4018C219.696 75.2368 223.575 73.7438 228.079 73.923C232.439 74.0623 236.154 75.6846 239.205 78.78C242.265 81.8754 243.719 85.5281 243.565 89.7383L243.586 89.7183ZM239.44 89.4297C239.368 86.2447 238.202 83.5077 235.94 81.2384C233.678 78.9691 230.965 77.8345 227.792 77.8345C224.619 77.8345 221.651 78.9691 219.317 81.2384C216.983 83.5077 215.796 86.2547 215.765 89.4795C215.694 92.6744 216.778 95.4613 219.02 97.85C221.262 100.239 223.964 101.513 227.137 101.652C230.566 101.791 233.493 100.637 235.909 98.1685C238.335 95.7001 239.512 92.7939 239.44 89.4198V89.4297Z" fill="#141414"/>
<path d="M279.871 89.7784C279.871 94.0184 278.366 97.6811 275.346 100.757C272.327 103.832 268.652 105.444 264.323 105.584C259.85 105.723 255.96 104.2 252.644 101.025C249.338 97.8403 247.731 94.0781 247.843 89.7287V64.0001H251.989V79.278C255.039 75.8442 258.847 74.0626 263.422 73.9233C267.885 73.7441 271.744 75.247 274.989 78.432C278.233 81.6169 279.861 85.3991 279.861 89.7884L279.871 89.7784ZM275.725 89.4898C275.654 86.3048 274.456 83.5578 272.132 81.2785C269.809 78.9893 266.994 77.8447 263.668 77.8447C260.341 77.8447 257.762 78.9794 255.5 81.2486C253.238 83.5179 252.06 86.2451 251.989 89.44C251.877 92.8041 253.054 95.7203 255.5 98.1887C257.946 100.657 260.873 101.812 264.272 101.672C267.486 101.533 270.208 100.269 272.44 97.9C274.671 95.5213 275.766 92.7245 275.725 89.4997V89.4898Z" fill="#141414"/>
<path d="M301.971 95.8797C302.186 98.6068 301.203 100.966 299.023 102.966C296.843 104.967 294.335 105.873 291.49 105.693C288.87 105.514 286.679 104.489 284.918 102.618C283.158 100.747 282.268 98.5172 282.268 95.9294H286.577V96.9447C286.577 97.9798 287.16 99.0547 288.327 100.159C289.494 101.264 290.732 101.802 292.032 101.762C293.783 101.722 295.164 101.214 296.177 100.219C297.089 99.2936 297.559 98.0893 297.601 96.5963C297.641 94.0085 296.126 92.2369 293.066 91.2714L289.412 90.1467C285.594 88.9822 283.598 86.4542 283.414 82.5626C283.301 80.2236 284.12 78.2231 285.85 76.5609C287.58 74.8987 289.668 74.0129 292.114 73.9034C294.233 73.7939 296.208 74.4608 298.051 75.894C299.893 77.3273 300.886 79.1089 301.029 81.2289V82.1346H296.669V81.4379C296.669 80.363 296.208 79.4971 295.277 78.8302C294.345 78.1633 293.281 77.8349 292.084 77.8349C290.917 77.8747 289.913 78.2828 289.054 79.0591C288.194 79.8454 287.754 80.8208 287.713 81.9953C287.569 84.165 288.89 85.7077 291.694 86.6333L295.297 87.8078C299.443 89.1912 301.664 91.8786 301.95 95.8697L301.971 95.8797Z" fill="#141414"/>
</g>
<defs>
<clipPath id="clip0_363_5443">
<rect width="242" height="72" fill="white" transform="translate(60 64.0001)"/>
</clipPath>
</defs>
</svg>
