<svg width="24" height="25" viewBox="0 0 24 25" fill="none" xmlns="http://www.w3.org/2000/svg">
<path d="M9.35419 21.955C10.0593 22.5773 10.9856 22.955 12 22.955C13.0145 22.955 13.9407 22.5773 14.6458 21.955M18 8.95496C18 7.36366 17.3679 5.83753 16.2427 4.71232C15.1174 3.5871 13.5913 2.95496 12 2.95496C10.4087 2.95496 8.8826 3.5871 7.75738 4.71232C6.63216 5.83753 6.00002 7.36366 6.00002 8.95496C6.00002 12.0451 5.22049 14.1609 4.34968 15.5604C3.61515 16.7408 3.24788 17.3311 3.26134 17.4957C3.27626 17.678 3.31488 17.7476 3.46179 17.8565C3.59448 17.955 4.19261 17.955 5.38887 17.955H18.6112C19.8074 17.955 20.4056 17.955 20.5382 17.8565C20.6852 17.7476 20.7238 17.678 20.7387 17.4957C20.7522 17.3311 20.3849 16.7408 19.6504 15.5604C18.7795 14.1609 18 12.0451 18 8.95496Z" stroke="white" stroke-width="2" stroke-linecap="round" stroke-linejoin="round"/>
</svg>
