<svg width="516" height="135" viewBox="0 0 516 135" fill="none" xmlns="http://www.w3.org/2000/svg">
<path d="M48.4002 118.6C43.9002 118.6 40.2002 122.3 40.2002 126.8C40.2002 131.3 43.9002 135 48.4002 135C52.9002 135 56.6002 131.3 56.6002 126.8C56.6002 122.3 52.9002 118.6 48.4002 118.6ZM48.4002 133.2C44.9002 133.2 42.0002 130.3 42.0002 126.8C42.0002 123.3 44.9002 120.4 48.4002 120.4C51.9002 120.4 54.8002 123.3 54.8002 126.8C54.8002 130.3 51.9002 133.2 48.4002 133.2Z" fill="white" fill-opacity="0.12"/>
<path d="M49.3 119.5H47.5V0H49.3V119.5Z" fill="white" fill-opacity="0.12"/>
<path d="M99.7 58.6C95.2 58.6 91.5 62.3 91.5 66.8C91.5 71.3 95.2 75 99.7 75C104.2 75 107.9 71.3 107.9 66.8C107.9 62.3 104.2 58.6 99.7 58.6ZM99.7 73.2C96.2 73.2 93.3 70.3 93.3 66.8C93.3 63.3 96.2 60.4 99.7 60.4C103.2 60.4 106.1 63.3 106.1 66.8C106.1 70.3 103.2 73.2 99.7 73.2Z" fill="white" fill-opacity="0.12"/>
<path d="M100.6 59.5H98.7998V0H100.6V59.5Z" fill="white" fill-opacity="0.12"/>
<path d="M74.7 47.5C70.2 47.5 66.5 51.2 66.5 55.7C66.5 60.2 70.2 63.9 74.7 63.9C79.2 63.9 82.9 60.2 82.9 55.7C82.9 51.2 79.2 47.5 74.7 47.5ZM74.7 62.1C71.2 62.1 68.3 59.2 68.3 55.7C68.3 52.2 71.2 49.3 74.7 49.3C78.2 49.3 81.1 52.2 81.1 55.7C81.1 59.2 78.2 62.1 74.7 62.1Z" fill="white" fill-opacity="0.12"/>
<path d="M75.5998 48.4H73.7998V0.100029H75.5998V48.4Z" fill="white" fill-opacity="0.12"/>
<path d="M141.1 87.7C136.6 87.7 132.9 91.4 132.9 95.9C132.9 100.4 136.6 104.1 141.1 104.1C145.6 104.1 149.3 100.4 149.3 95.9C149.3 91.4 145.6 87.7 141.1 87.7ZM141.1 102.3C137.6 102.3 134.7 99.4 134.7 95.9C134.7 92.4 137.6 89.5 141.1 89.5C144.6 89.5 147.5 92.4 147.5 95.9C147.5 99.4 144.6 102.3 141.1 102.3Z" fill="white" fill-opacity="0.12"/>
<path d="M122.6 -4.57764e-05H120.8V47.1999L140.2 55.8V88.7H142V54.5999L122.6 46V-4.57764e-05Z" fill="white" fill-opacity="0.12"/>
<path d="M8.2 87.7C3.7 87.7 0 91.4 0 95.9C0 100.4 3.7 104 8.2 104C12.7 104 16.4 100.3 16.4 95.8C16.4 91.3 12.7 87.7 8.2 87.7ZM8.2 102.3C4.7 102.3 1.8 99.4 1.8 95.9C1.8 92.4 4.7 89.5 8.2 89.5C11.7 89.5 14.6 92.4 14.6 95.9C14.6 99.4 11.7 102.3 8.2 102.3Z" fill="white" fill-opacity="0.12"/>
<path d="M28.4998 -4.57764e-05H26.6998V46L7.2998 54.5999V88.7H9.0998V55.8L28.4998 47.1999V-4.57764e-05Z" fill="white" fill-opacity="0.12"/>
<path d="M414.3 58.6C409.8 58.6 406.1 62.3 406.1 66.8C406.1 71.3 409.8 75 414.3 75C418.8 75 422.5 71.3 422.5 66.8C422.4 62.3 418.8 58.6 414.3 58.6ZM414.3 73.2C410.8 73.2 407.9 70.3 407.9 66.8C407.9 63.3 410.8 60.4 414.3 60.4C417.8 60.4 420.7 63.3 420.7 66.8C420.7 70.3 417.8 73.2 414.3 73.2Z" fill="white" fill-opacity="0.12"/>
<path d="M415.2 59.5H413.4V0H415.2V59.5Z" fill="white" fill-opacity="0.12"/>
<path d="M465.6 88.6C461.1 88.6 457.4 92.3 457.4 96.8C457.4 101.3 461.1 105 465.6 105C470.1 105 473.8 101.3 473.8 96.8C473.8 92.3 470.1 88.6 465.6 88.6ZM465.6 103.2C462.1 103.2 459.2 100.3 459.2 96.8C459.2 93.3 462.1 90.4 465.6 90.4C469.1 90.4 472 93.3 472 96.8C472 100.3 469.1 103.2 465.6 103.2Z" fill="white" fill-opacity="0.12"/>
<path d="M466.5 89.5H464.7V0H466.5V89.5Z" fill="white" fill-opacity="0.12"/>
<path d="M440.5 47.5C436 47.5 432.3 51.2 432.3 55.7C432.3 60.2 436 63.9 440.5 63.9C445 63.9 448.7 60.2 448.7 55.7C448.7 51.2 445 47.5 440.5 47.5ZM440.5 62.1C437 62.1 434.1 59.2 434.1 55.7C434.1 52.2 437 49.3 440.5 49.3C444 49.3 446.9 52.2 446.9 55.7C446.9 59.2 444 62.1 440.5 62.1Z" fill="white" fill-opacity="0.12"/>
<path d="M441.4 48.4H439.6V0.100029H441.4V48.4Z" fill="white" fill-opacity="0.12"/>
<path d="M290.2 18.6C285.7 18.6 282 22.3 282 26.8C282 31.3 285.7 35 290.2 35C294.7 35 298.4 31.3 298.4 26.8C298.3 22.3 294.7 18.6 290.2 18.6ZM290.2 33.2C286.7 33.2 283.8 30.3 283.8 26.8C283.8 23.3 286.7 20.4 290.2 20.4C293.7 20.4 296.6 23.3 296.6 26.8C296.6 30.3 293.7 33.2 290.2 33.2Z" fill="white" fill-opacity="0.12"/>
<path d="M291.1 19.5H289.3V0H291.1V19.5Z" fill="white" fill-opacity="0.12"/>
<path d="M341.5 88.6C337 88.6 333.3 92.3 333.3 96.8C333.3 101.3 337 105 341.5 105C346 105 349.7 101.3 349.7 96.8C349.7 92.3 346 88.6 341.5 88.6ZM341.5 103.2C338 103.2 335.1 100.3 335.1 96.8C335.1 93.3 338 90.4 341.5 90.4C345 90.4 347.9 93.3 347.9 96.8C347.9 100.3 345 103.2 341.5 103.2Z" fill="white" fill-opacity="0.12"/>
<path d="M342.4 89.5H340.6V0H342.4V89.5Z" fill="white" fill-opacity="0.12"/>
<path d="M316.4 47.5C311.9 47.5 308.2 51.2 308.2 55.7C308.2 60.2 311.9 63.9 316.4 63.9C320.9 63.9 324.6 60.2 324.6 55.7C324.6 51.2 320.9 47.5 316.4 47.5ZM316.4 62.1C312.9 62.1 310 59.2 310 55.7C310 52.2 312.9 49.3 316.4 49.3C319.9 49.3 322.8 52.2 322.8 55.7C322.8 59.2 319.9 62.1 316.4 62.1Z" fill="white" fill-opacity="0.12"/>
<path d="M317.3 48.4H315.5V0.100029H317.3V48.4Z" fill="white" fill-opacity="0.12"/>
<path d="M382.9 87.7C378.4 87.7 374.7 91.4 374.7 95.9C374.7 100.4 378.4 104.1 382.9 104.1C387.4 104.1 391.1 100.4 391.1 95.9C391.1 91.4 387.4 87.7 382.9 87.7ZM382.9 102.3C379.4 102.3 376.5 99.4 376.5 95.9C376.5 92.4 379.4 89.5 382.9 89.5C386.4 89.5 389.3 92.4 389.3 95.9C389.3 99.4 386.4 102.3 382.9 102.3Z" fill="white" fill-opacity="0.12"/>
<path d="M364.4 -4.57764e-05H362.6V47.1999L382 55.8V88.7H383.8V54.5999L364.4 46V-4.57764e-05Z" fill="white" fill-opacity="0.12"/>
<path d="M172.6 108.6C168.1 108.6 164.4 112.3 164.4 116.8C164.4 121.3 168.1 125 172.6 125C177.1 125 180.8 121.3 180.8 116.8C180.8 112.3 177.1 108.6 172.6 108.6ZM172.6 123.2C169.1 123.2 166.2 120.3 166.2 116.8C166.2 113.3 169.1 110.4 172.6 110.4C176.1 110.4 179 113.3 179 116.8C179 120.3 176.1 123.2 172.6 123.2Z" fill="white" fill-opacity="0.12"/>
<path d="M173.5 109.5H171.7V0H173.5V109.5Z" fill="white" fill-opacity="0.12"/>
<path d="M223.9 78.6C219.4 78.6 215.7 82.3 215.7 86.8C215.7 91.3 219.4 95 223.9 95C228.4 95 232.1 91.3 232.1 86.8C232.1 82.3 228.4 78.6 223.9 78.6ZM223.9 93.2C220.4 93.2 217.5 90.3 217.5 86.8C217.5 83.3 220.4 80.4 223.9 80.4C227.4 80.4 230.3 83.3 230.3 86.8C230.3 90.3 227.4 93.2 223.9 93.2Z" fill="white" fill-opacity="0.12"/>
<path d="M224.8 79.5H223V0H224.8V79.5Z" fill="white" fill-opacity="0.12"/>
<path d="M198.8 47.5C194.3 47.5 190.6 51.2 190.6 55.7C190.6 60.2 194.3 63.9 198.8 63.9C203.3 63.9 207 60.2 207 55.7C207 51.2 203.3 47.5 198.8 47.5ZM198.8 62.1C195.3 62.1 192.4 59.2 192.4 55.7C192.4 52.2 195.3 49.3 198.8 49.3C202.3 49.3 205.2 52.2 205.2 55.7C205.2 59.2 202.3 62.1 198.8 62.1Z" fill="white" fill-opacity="0.12"/>
<path d="M199.7 48.4H197.9V0.100029H199.7V48.4Z" fill="white" fill-opacity="0.12"/>
<path d="M265.3 87.7C260.8 87.7 257.1 91.4 257.1 95.9C257.1 100.4 260.8 104.1 265.3 104.1C269.8 104.1 273.5 100.4 273.5 95.9C273.5 91.4 269.8 87.7 265.3 87.7ZM265.3 102.3C261.8 102.3 258.9 99.4 258.9 95.9C258.9 92.4 261.8 89.5 265.3 89.5C268.8 89.5 271.7 92.4 271.7 95.9C271.7 99.4 268.8 102.3 265.3 102.3Z" fill="white" fill-opacity="0.12"/>
<path d="M246.8 -4.57764e-05H245V47.1999L264.4 55.8V88.7H266.2V54.5999L246.8 46V-4.57764e-05Z" fill="white" fill-opacity="0.12"/>
</svg>
