<svg width="372" height="113" viewBox="0 0 372 113" fill="none" xmlns="http://www.w3.org/2000/svg">
<path d="M48.4 16.4C43.9 16.4 40.2 12.7 40.2 8.2C40.2 3.7 43.9 0 48.4 0C52.9 0 56.5999 3.7 56.5999 8.2C56.5999 12.7 52.9 16.4 48.4 16.4ZM48.4 1.8C44.9 1.8 42 4.7 42 8.2C42 11.7 44.9 14.6 48.4 14.6C51.9 14.6 54.7999 11.7 54.7999 8.2C54.7999 4.7 51.9 1.8 48.4 1.8Z" fill="white" fill-opacity="0.08"/>
<path d="M49.3 15.5H47.5V135H49.3V15.5Z" fill="white" fill-opacity="0.08"/>
<path d="M99.7 76.4C95.2 76.4 91.5 72.7 91.5 68.2C91.5 63.7 95.2 60 99.7 60C104.2 60 107.9 63.7 107.9 68.2C107.9 72.7 104.2 76.4 99.7 76.4ZM99.7 61.8C96.2 61.8 93.3 64.7 93.3 68.2C93.3 71.7 96.2 74.6 99.7 74.6C103.2 74.6 106.1 71.7 106.1 68.2C106.1 64.7 103.2 61.8 99.7 61.8Z" fill="white" fill-opacity="0.08"/>
<path d="M100.6 75.5H98.8V135H100.6V75.5Z" fill="white" fill-opacity="0.08"/>
<path d="M74.7 87.5C70.2 87.5 66.5 83.8 66.5 79.3C66.5 74.8 70.2 71.1 74.7 71.1C79.2 71.1 82.9 74.8 82.9 79.3C82.9 83.8 79.2 87.5 74.7 87.5ZM74.7 72.9C71.2 72.9 68.3 75.8 68.3 79.3C68.3 82.8 71.2 85.7 74.7 85.7C78.2 85.7 81.1 82.8 81.1 79.3C81.1 75.8 78.2 72.9 74.7 72.9Z" fill="white" fill-opacity="0.08"/>
<path d="M75.6 86.6H73.8V134.9H75.6V86.6Z" fill="white" fill-opacity="0.08"/>
<path d="M141.1 47.3C136.6 47.3 132.9 43.6 132.9 39.1C132.9 34.6 136.6 30.9 141.1 30.9C145.6 30.9 149.3 34.6 149.3 39.1C149.3 43.6 145.6 47.3 141.1 47.3ZM141.1 32.7C137.6 32.7 134.7 35.6 134.7 39.1C134.7 42.6 137.6 45.5 141.1 45.5C144.6 45.5 147.5 42.6 147.5 39.1C147.5 35.6 144.6 32.7 141.1 32.7Z" fill="white" fill-opacity="0.08"/>
<path d="M122.6 135H120.8V87.8001L140.2 79.2V46.3H142V80.4001L122.6 89V135Z" fill="white" fill-opacity="0.08"/>
<path d="M8.2 47.3C3.7 47.3 0 43.6 0 39.1C0 34.6 3.7 31 8.2 31C12.7 31 16.4 34.7 16.4 39.2C16.4 43.7 12.7 47.3 8.2 47.3ZM8.2 32.7C4.7 32.7 1.8 35.6 1.8 39.1C1.8 42.6 4.7 45.5 8.2 45.5C11.7 45.5 14.6 42.6 14.6 39.1C14.6 35.6 11.7 32.7 8.2 32.7Z" fill="white" fill-opacity="0.08"/>
<path d="M28.5 135H26.7001V89L7.30005 80.4001V46.3H9.10005V79.2L28.5 87.8001V135Z" fill="white" fill-opacity="0.08"/>
<path d="M290.2 116.4C285.7 116.4 282 112.7 282 108.2C282 103.7 285.7 100 290.2 100C294.7 100 298.4 103.7 298.4 108.2C298.3 112.7 294.7 116.4 290.2 116.4ZM290.2 101.8C286.7 101.8 283.8 104.7 283.8 108.2C283.8 111.7 286.7 114.6 290.2 114.6C293.7 114.6 296.6 111.7 296.6 108.2C296.6 104.7 293.7 101.8 290.2 101.8Z" fill="white" fill-opacity="0.08"/>
<path d="M341.5 46.4C337 46.4 333.3 42.7 333.3 38.2C333.3 33.7 337 30 341.5 30C346 30 349.7 33.7 349.7 38.2C349.7 42.7 346 46.4 341.5 46.4ZM341.5 31.8C338 31.8 335.1 34.7 335.1 38.2C335.1 41.7 338 44.6 341.5 44.6C345 44.6 347.9 41.7 347.9 38.2C347.9 34.7 345 31.8 341.5 31.8Z" fill="white" fill-opacity="0.08"/>
<path d="M342.4 45.5H340.6V135H342.4V45.5Z" fill="white" fill-opacity="0.08"/>
<path d="M316.4 87.5C311.9 87.5 308.2 83.8 308.2 79.3C308.2 74.8 311.9 71.1 316.4 71.1C320.9 71.1 324.6 74.8 324.6 79.3C324.6 83.8 320.9 87.5 316.4 87.5ZM316.4 72.9C312.9 72.9 310 75.8 310 79.3C310 82.8 312.9 85.7 316.4 85.7C319.9 85.7 322.8 82.8 322.8 79.3C322.8 75.8 319.9 72.9 316.4 72.9Z" fill="white" fill-opacity="0.08"/>
<path d="M317.3 86.6H315.5V134.9H317.3V86.6Z" fill="white" fill-opacity="0.08"/>
<path d="M364.4 135H362.6V87.8001L382 79.2V46.3H383.8V80.4001L364.4 89V135Z" fill="white" fill-opacity="0.08"/>
<path d="M172.6 26.4C168.1 26.4 164.4 22.7 164.4 18.2C164.4 13.7 168.1 10 172.6 10C177.1 10 180.8 13.7 180.8 18.2C180.8 22.7 177.1 26.4 172.6 26.4ZM172.6 11.8C169.1 11.8 166.2 14.7 166.2 18.2C166.2 21.7 169.1 24.6 172.6 24.6C176.1 24.6 179 21.7 179 18.2C179 14.7 176.1 11.8 172.6 11.8Z" fill="white" fill-opacity="0.08"/>
<path d="M173.5 25.5H171.7V135H173.5V25.5Z" fill="white" fill-opacity="0.08"/>
<path d="M223.9 56.4C219.4 56.4 215.7 52.7 215.7 48.2C215.7 43.7 219.4 40 223.9 40C228.4 40 232.1 43.7 232.1 48.2C232.1 52.7 228.4 56.4 223.9 56.4ZM223.9 41.8C220.4 41.8 217.5 44.7 217.5 48.2C217.5 51.7 220.4 54.6 223.9 54.6C227.4 54.6 230.3 51.7 230.3 48.2C230.3 44.7 227.4 41.8 223.9 41.8Z" fill="white" fill-opacity="0.08"/>
<path d="M224.8 55.5H223V135H224.8V55.5Z" fill="white" fill-opacity="0.08"/>
<path d="M198.8 87.5C194.3 87.5 190.6 83.8 190.6 79.3C190.6 74.8 194.3 71.1 198.8 71.1C203.3 71.1 207 74.8 207 79.3C207 83.8 203.3 87.5 198.8 87.5ZM198.8 72.9C195.3 72.9 192.4 75.8 192.4 79.3C192.4 82.8 195.3 85.7 198.8 85.7C202.3 85.7 205.2 82.8 205.2 79.3C205.2 75.8 202.3 72.9 198.8 72.9Z" fill="white" fill-opacity="0.08"/>
<path d="M199.7 86.6H197.9V134.9H199.7V86.6Z" fill="white" fill-opacity="0.08"/>
<path d="M265.3 47.3C260.8 47.3 257.1 43.6 257.1 39.1C257.1 34.6 260.8 30.9 265.3 30.9C269.8 30.9 273.5 34.6 273.5 39.1C273.5 43.6 269.8 47.3 265.3 47.3ZM265.3 32.7C261.8 32.7 258.9 35.6 258.9 39.1C258.9 42.6 261.8 45.5 265.3 45.5C268.8 45.5 271.7 42.6 271.7 39.1C271.7 35.6 268.8 32.7 265.3 32.7Z" fill="white" fill-opacity="0.08"/>
<path d="M246.8 135H245V87.8001L264.4 79.2V46.3H266.2V80.4001L246.8 89V135Z" fill="white" fill-opacity="0.08"/>
</svg>
