<svg width="176" height="54" viewBox="0 0 176 54" fill="none" xmlns="http://www.w3.org/2000/svg">
<path d="M35.7969 53.8581V47.3374H36.8986V53.8581H35.7969Z" fill="white"/>
<path d="M44.7154 48.3278V53.8648H43.6137V48.3278H41.5591V47.3367H46.7774V48.3278H44.7079H44.7154Z" fill="white"/>
<path d="M61.9855 47.9626L61.5314 48.9314C60.8242 48.4991 60.117 48.3277 59.6257 48.3277C58.9855 48.3277 58.5612 48.5736 58.5612 49.0059C58.5612 50.4292 62.0822 49.6691 62.0674 52.0166C62.0674 53.1791 61.0401 53.902 59.6108 53.902C58.5835 53.902 57.6158 53.4847 56.9458 52.8661L57.4222 51.9197C58.0922 52.5308 58.9334 52.8661 59.6257 52.8661C60.3924 52.8661 60.8465 52.5755 60.8465 52.0762C60.8465 50.623 57.3255 51.4353 57.3255 49.1102C57.3255 47.9924 58.2857 47.2919 59.7001 47.2919C60.5488 47.2919 61.3751 47.5602 61.978 47.9626H61.9855Z" fill="white"/>
<path d="M73.4418 50.6011C73.4418 52.4642 71.9307 53.9099 69.9877 53.9099C68.0448 53.9099 66.5337 52.4642 66.5337 50.6011C66.5337 48.7381 68.0448 47.3147 69.9877 47.3147C71.9307 47.3147 73.4418 48.7381 73.4418 50.6011ZM67.6503 50.6011C67.6503 51.8978 68.7223 52.9188 69.9952 52.9188C71.2681 52.9188 72.3103 51.8904 72.3103 50.6011C72.3103 49.3119 71.2681 48.2984 69.9952 48.2984C68.7223 48.2984 67.6503 49.3044 67.6503 50.6011Z" fill="white"/>
<path d="M82.2559 52.8595V53.8581H78.3403V47.3374H79.4421V52.8595H82.2634H82.2559Z" fill="white"/>
<path d="M92.5663 51.1597C92.5663 52.8662 91.4944 53.9095 89.7376 53.9095C87.9808 53.9095 86.9014 52.8662 86.9014 51.1597V47.3367H88.0031V51.1597C88.0031 52.2626 88.6805 52.9184 89.7525 52.9184C90.8244 52.9184 91.4721 52.2626 91.4721 51.1597V47.3367H92.5738V51.1597H92.5663Z" fill="white"/>
<path d="M100.248 48.3285V53.8655H99.1464V48.3285H97.0918V47.3374H102.31V48.3285H100.241H100.248Z" fill="white"/>
<path d="M106.978 53.8574V47.3367H108.08V53.8574H106.978Z" fill="white"/>
<path d="M119.878 50.6011C119.878 52.4642 118.367 53.9099 116.424 53.9099C114.481 53.9099 112.97 52.4642 112.97 50.6011C112.97 48.7381 114.481 47.3147 116.424 47.3147C118.367 47.3147 119.878 48.7381 119.878 50.6011ZM114.087 50.6011C114.087 51.8978 115.159 52.9188 116.432 52.9188C117.705 52.9188 118.747 51.8904 118.747 50.6011C118.747 49.3119 117.705 48.2984 116.432 48.2984C115.159 48.2984 114.087 49.3044 114.087 50.6011Z" fill="white"/>
<path d="M129.339 53.8581L125.87 49.1781V53.8581H124.769V47.3374H125.848L129.339 52.0248V47.3374H130.419V53.8581H129.339Z" fill="white"/>
<path d="M140.29 47.9626L139.836 48.9314C139.128 48.4991 138.421 48.3277 137.93 48.3277C137.29 48.3277 136.865 48.5736 136.865 49.0059C136.865 50.4292 140.386 49.6691 140.372 52.0166C140.372 53.1791 139.344 53.902 137.915 53.902C136.888 53.902 135.92 53.4847 135.25 52.8661L135.726 51.9197C136.396 52.5308 137.238 52.8661 137.93 52.8661C138.689 52.8661 139.151 52.5755 139.151 52.0762C139.151 50.623 135.63 51.4353 135.63 49.1102C135.63 47.9924 136.59 47.2919 138.004 47.2919C138.853 47.2919 139.679 47.5602 140.282 47.9626H140.29Z" fill="white"/>
<path d="M70.8384 29.3991C75.9281 29.3991 80.0542 25.2685 80.0542 20.1732C80.0542 15.0779 75.9281 10.9474 70.8384 10.9474C65.7486 10.9474 61.6226 15.0779 61.6226 20.1732C61.6226 25.2685 65.7486 29.3991 70.8384 29.3991Z" fill="#35AFE5"/>
<path d="M120.259 27.6251C125.349 27.6251 129.475 23.4946 129.475 18.3993C129.475 13.304 125.349 9.17346 120.259 9.17346C115.17 9.17346 111.043 13.304 111.043 18.3993C111.043 23.4946 115.17 27.6251 120.259 27.6251Z" fill="#37C116"/>
<path d="M16.6599 30.6212H7.89076C5.59053 30.6212 3.69973 29.9728 2.21835 28.6762C0.736975 27.3795 0 25.5239 0 23.1168V7.58641C0 5.17935 0.736975 3.32374 2.21835 2.02706C3.69973 0.730374 5.59053 0.0820312 7.89076 0.0820312H16.6599V2.94368H7.86843C6.27539 2.94368 5.15877 3.26412 4.52602 3.89756C3.52107 4.95578 3.01487 6.01399 3.01487 7.07221V13.6674H13.2505V16.6036H3.01487V23.6459C3.01487 24.7041 3.52107 25.7549 4.52602 26.8131C5.16621 27.4465 6.27539 27.7595 7.86843 27.7595H16.6599V30.6212Z" fill="white"/>
<path d="M38.2035 30.6212H35.1886V17.3935C35.1886 15.4857 34.4889 13.8463 33.0968 12.4676C31.6973 11.0889 30.0671 10.4033 28.206 10.4033C26.345 10.4033 24.6775 11.0889 23.278 12.4676C21.8786 13.8463 21.1863 15.4857 21.1863 17.3935V30.6212H18.1714V17.714C18.1714 14.7778 19.1242 12.3335 21.0299 10.3884C22.9356 8.4434 25.3252 7.46716 28.2135 7.46716C31.1018 7.46716 33.4541 8.4434 35.3524 10.3884C37.2581 12.3335 38.2109 14.7778 38.2109 17.714V30.6212H38.2035Z" fill="white"/>
<path d="M49.63 31.0985C44.1288 31.0985 41.3745 28.7511 41.3745 24.0637V0.0302734H44.3894V7.93707H49.63V10.754H44.3894V23.542C44.3894 26.9029 46.1387 28.5871 49.63 28.5871V31.0911V31.0985Z" fill="white"/>
<path d="M61.1752 10.5599C59.7757 10.612 58.6368 10.9996 57.7658 11.715C56.8948 12.4304 56.2993 13.0489 55.9792 13.5855C55.473 14.4574 55.2274 15.6274 55.2274 17.0806V30.6287H52.0562V7.98887H54.87V11.2082C55.5028 9.99351 56.4407 9.04707 57.6839 8.39128C58.8228 7.7802 59.9841 7.50447 61.1752 7.55664V10.5748V10.5599Z" fill="white"/>
<path d="M83.6343 19.3012C83.6343 22.5578 82.4507 25.3747 80.0835 27.7445C77.7162 30.1143 74.9024 31.2471 71.6493 31.1428C68.5004 31.0608 65.8354 29.8684 63.6543 27.5657C61.4732 25.263 60.3789 22.5205 60.3789 19.3459C60.3789 16.1713 61.5551 13.1978 63.9074 10.828C66.2597 8.45822 69.0662 7.32549 72.3192 7.42982C75.4681 7.53415 78.1406 8.74886 80.3366 11.0665C82.5326 13.3841 83.6268 16.134 83.6268 19.3086L83.6343 19.3012ZM80.6194 19.0627C80.5376 16.6706 79.6815 14.6212 78.0512 12.9221C76.421 11.223 74.4483 10.366 72.148 10.366C69.7362 10.3362 67.6816 11.1857 65.9843 12.8997C64.2871 14.6137 63.4235 16.6855 63.4012 19.1074C63.3491 21.4996 64.1307 23.5937 65.7461 25.3896C67.3615 27.1856 69.3416 28.1246 71.6716 28.1991C74.1654 28.3333 76.2944 27.4688 78.0512 25.6058C79.8155 23.7427 80.6716 21.5592 80.6194 19.0627Z" fill="white"/>
<path d="M112.488 30.6216H103.719C101.389 30.6216 99.483 29.9733 98.0017 28.6766C96.5203 27.3799 95.7759 25.5094 95.7759 23.0725V0.0302734H98.7907V23.5942C98.7907 24.6524 99.2969 25.6957 100.302 26.7315C100.942 27.365 102.066 27.6854 103.682 27.6854H112.473V30.6216H112.488Z" fill="white"/>
<path d="M133.518 19.2561V30.6133H130.503V27.081C128.054 29.8904 125.046 31.2393 121.488 31.135C118.376 31.0306 115.734 29.8234 113.545 27.5206C111.356 25.2179 110.262 22.4755 110.262 19.3009C110.262 16.1262 111.438 13.1528 113.791 10.783C116.143 8.41317 118.964 7.29534 122.24 7.42948C125.411 7.53381 128.113 8.74852 130.332 11.0662C132.557 13.3838 133.614 16.1188 133.503 19.271L133.518 19.2561ZM130.503 19.04C130.451 16.6553 129.602 14.606 127.957 12.9069C126.312 11.2077 124.339 10.3582 122.031 10.3582C119.724 10.3582 117.565 11.2077 115.868 12.9069C114.17 14.606 113.307 16.6628 113.285 19.0773C113.232 21.4694 114.021 23.5561 115.652 25.3446C117.282 27.1331 119.247 28.087 121.555 28.1913C124.049 28.2957 126.178 27.4312 127.935 25.5831C129.699 23.7349 130.555 21.5589 130.503 19.0326V19.04Z" fill="white"/>
<path d="M159.906 19.3012C159.906 22.4759 158.812 25.2183 156.616 27.521C154.42 29.8238 151.748 31.031 148.599 31.1353C145.346 31.2397 142.517 30.0995 140.105 27.7222C137.701 25.3375 136.532 22.5206 136.614 19.264V0H139.629V11.4391C141.847 8.86813 144.616 7.53419 147.944 7.42986C151.189 7.29572 153.996 8.421 156.356 10.8057C158.715 13.1904 159.899 16.0223 159.899 19.3087L159.906 19.3012ZM156.892 19.0851C156.84 16.7004 155.969 14.6436 154.279 12.937C152.589 11.223 150.542 10.366 148.122 10.366C145.703 10.366 143.827 11.2156 142.182 12.9147C140.537 14.6138 139.681 16.6557 139.629 19.0479C139.547 21.5667 140.403 23.7502 142.182 25.5983C143.961 27.4465 146.09 28.311 148.562 28.2066C150.899 28.1023 152.879 27.1559 154.502 25.3822C156.125 23.6012 156.921 21.5071 156.892 19.0926V19.0851Z" fill="white"/>
<path d="M175.979 23.8694C176.135 25.9113 175.421 27.6775 173.835 29.1754C172.249 30.6733 170.426 31.3514 168.356 31.2173C166.45 31.0831 164.857 30.3156 163.577 28.9145C162.297 27.5135 161.649 25.8442 161.649 23.9067H164.783V24.6668C164.783 25.4418 165.207 26.2467 166.056 27.0739C166.904 27.901 167.805 28.3035 168.751 28.2737C170.024 28.2438 171.029 27.8638 171.765 27.1186C172.428 26.4255 172.77 25.5238 172.8 24.406C172.83 22.4684 171.728 21.1419 169.502 20.419L166.845 19.5769C164.068 18.705 162.617 16.8122 162.483 13.8983C162.401 12.1471 162.996 10.6492 164.254 9.40466C165.512 8.16014 167.031 7.4969 168.81 7.41492C170.351 7.33295 171.788 7.83225 173.128 8.90536C174.468 9.97848 175.19 11.3124 175.294 12.8997V13.5779H172.123V13.0562C172.123 12.2514 171.788 11.6031 171.11 11.1038C170.433 10.6045 169.659 10.3585 168.788 10.3585C167.939 10.3884 167.21 10.6939 166.584 11.2752C165.959 11.8639 165.639 12.5942 165.609 13.4736C165.505 15.0981 166.465 16.2532 168.505 16.9463L171.125 17.8257C174.14 18.8615 175.756 20.8736 175.964 23.8619L175.979 23.8694Z" fill="white"/>
</svg>
