<svg width="298" height="91" viewBox="0 0 298 91" fill="none" xmlns="http://www.w3.org/2000/svg">
<path d="M60.9067 90.8855V79.8818H62.7659V90.8855H60.9067Z" fill="#212121"/>
<path d="M75.9564 81.5527V90.8963H74.0972V81.5527H70.6301V79.8801H79.436V81.5527H75.9438H75.9564Z" fill="#212121"/>
<path d="M105.099 80.937L104.333 82.5718C103.139 81.8424 101.946 81.5532 101.117 81.5532C100.037 81.5532 99.3206 81.9682 99.3206 82.6976C99.3206 85.0995 105.262 83.8168 105.237 87.7781C105.237 89.7399 103.504 90.9597 101.092 90.9597C99.3583 90.9597 97.7253 90.2555 96.5947 89.2117L97.3987 87.6146C98.5292 88.6458 99.9488 89.2117 101.117 89.2117C102.411 89.2117 103.177 88.7213 103.177 87.8787C103.177 85.4265 97.2354 86.7972 97.2354 82.8736C97.2354 80.9873 98.8559 79.8052 101.243 79.8052C102.675 79.8052 104.069 80.2579 105.087 80.937H105.099Z" fill="#212121"/>
<path d="M124.432 85.3889C124.432 88.5328 121.882 90.9724 118.603 90.9724C115.324 90.9724 112.774 88.5328 112.774 85.3889C112.774 82.245 115.324 79.843 118.603 79.843C121.882 79.843 124.432 82.245 124.432 85.3889ZM114.659 85.3889C114.659 87.577 116.468 89.2999 118.616 89.2999C120.764 89.2999 122.522 87.5644 122.522 85.3889C122.522 83.2133 120.764 81.503 118.616 81.503C116.468 81.503 114.659 83.2007 114.659 85.3889Z" fill="#212121"/>
<path d="M139.306 89.2004V90.8855H132.698V79.8818H134.558V89.2004H139.319H139.306Z" fill="#212121"/>
<path d="M156.705 86.3314C156.705 89.2112 154.896 90.9718 151.931 90.9718C148.967 90.9718 147.145 89.2112 147.145 86.3314V79.8801H149.004V86.3314C149.004 88.1926 150.148 89.2993 151.957 89.2993C153.765 89.2993 154.858 88.1926 154.858 86.3314V79.8801H156.717V86.3314H156.705Z" fill="#212121"/>
<path d="M169.667 81.5544V90.898H167.808V81.5544H164.341V79.8818H173.147V81.5544H169.655H169.667Z" fill="#212121"/>
<path d="M181.024 90.8838V79.8801H182.884V90.8838H181.024Z" fill="#212121"/>
<path d="M202.794 85.3889C202.794 88.5328 200.244 90.9724 196.965 90.9724C193.687 90.9724 191.137 88.5328 191.137 85.3889C191.137 82.245 193.687 79.843 196.965 79.843C200.244 79.843 202.794 82.245 202.794 85.3889ZM193.021 85.3889C193.021 87.577 194.83 89.2999 196.978 89.2999C199.126 89.2999 200.885 87.5644 200.885 85.3889C200.885 83.2133 199.126 81.503 196.978 81.503C194.83 81.503 193.021 83.2007 193.021 85.3889Z" fill="#212121"/>
<path d="M218.759 90.8855L212.905 82.988V90.8855H211.046V79.8818H212.867L218.759 87.7919V79.8818H220.58V90.8855H218.759Z" fill="#212121"/>
<path d="M237.238 80.937L236.472 82.5718C235.278 81.8424 234.085 81.5532 233.256 81.5532C232.175 81.5532 231.459 81.9682 231.459 82.6976C231.459 85.0995 237.401 83.8168 237.376 87.7781C237.376 89.7399 235.642 90.9597 233.231 90.9597C231.497 90.9597 229.864 90.2555 228.733 89.2117L229.537 87.6146C230.668 88.6458 232.087 89.2117 233.256 89.2117C234.537 89.2117 235.316 88.7213 235.316 87.8787C235.316 85.4265 229.374 86.7972 229.374 82.8736C229.374 80.9873 230.995 79.8052 233.381 79.8052C234.813 79.8052 236.208 80.2579 237.225 80.937H237.238Z" fill="#212121"/>
<path d="M120.039 49.6108C128.628 49.6108 135.591 42.6405 135.591 34.0422C135.591 25.4439 128.628 18.4736 120.039 18.4736C111.45 18.4736 104.488 25.4439 104.488 34.0422C104.488 42.6405 111.45 49.6108 120.039 49.6108Z" fill="#35AFE5"/>
<path d="M203.438 46.6172C212.027 46.6172 218.99 39.6469 218.99 31.0486C218.99 22.4503 212.027 15.48 203.438 15.48C194.849 15.48 187.886 22.4503 187.886 31.0486C187.886 39.6469 194.849 46.6172 203.438 46.6172Z" fill="#37C116"/>
<path d="M28.6136 51.6732H13.8156C9.93401 51.6732 6.74329 50.5791 4.24347 48.391C1.74364 46.2028 0.5 43.0715 0.5 39.0096V12.8021C0.5 8.74014 1.74364 5.60881 4.24347 3.42066C6.74329 1.23251 9.93401 0.138428 13.8156 0.138428H28.6136V4.96746H13.778C11.0897 4.96746 9.20542 5.5082 8.13765 6.57713C6.44179 8.36286 5.58758 10.1486 5.58758 11.9343V23.0637H22.8602V28.0185H5.58758V39.9025C5.58758 41.6882 6.44179 43.4613 8.13765 45.2471C9.21798 46.316 11.0897 46.8442 13.778 46.8442H28.6136V51.6732Z" fill="#212121"/>
<path d="M64.9682 51.6734H59.8806V29.3518C59.8806 26.1324 58.6998 23.3658 56.3507 21.0393C53.9891 18.7128 51.238 17.5559 48.0975 17.5559C44.9571 17.5559 42.1432 18.7128 39.7815 21.0393C37.4199 23.3658 36.2516 26.1324 36.2516 29.3518V51.6734H31.1641V29.8925C31.1641 24.9377 32.772 20.8129 35.9878 17.5307C39.2037 14.2485 43.2361 12.6011 48.1101 12.6011C52.9841 12.6011 56.9537 14.2485 60.157 17.5307C63.3728 20.8129 64.9808 24.9377 64.9808 29.8925V51.6734H64.9682Z" fill="#212121"/>
<path d="M84.2505 52.4787C74.9672 52.4787 70.3193 48.5174 70.3193 40.6073V0.0510254H75.4069V13.3937H84.2505V18.1473H75.4069V39.727C75.4069 45.3986 78.359 48.2407 84.2505 48.2407V52.4661V52.4787Z" fill="#212121"/>
<path d="M103.733 17.8197C101.372 17.9077 99.4497 18.5616 97.98 19.7689C96.5102 20.9761 95.5053 22.0199 94.9651 22.9254C94.1109 24.3967 93.6964 26.3711 93.6964 28.8233V51.6857H88.345V13.4811H93.0934V18.9138C94.1611 16.8639 95.7439 15.2668 97.8418 14.1602C99.7638 13.129 101.723 12.6637 103.733 12.7517V17.8448V17.8197Z" fill="#212121"/>
<path d="M141.633 32.5709C141.633 38.0664 139.636 42.82 135.641 46.8191C131.646 50.8181 126.898 52.7296 121.408 52.5535C116.095 52.4152 111.598 50.4031 107.917 46.5172C104.236 42.6314 102.39 38.0036 102.39 32.6464C102.39 27.2892 104.374 22.2715 108.344 18.2725C112.314 14.2734 117.049 12.3619 122.539 12.538C127.853 12.7141 132.362 14.7639 136.068 18.6749C139.774 22.5859 141.621 27.2263 141.621 32.5835L141.633 32.5709ZM136.546 32.1685C136.407 28.1317 134.963 24.6734 132.212 21.8062C129.461 18.939 126.132 17.4928 122.25 17.4928C118.18 17.4425 114.713 18.8761 111.849 21.7685C108.985 24.6609 107.527 28.1569 107.49 32.2439C107.402 36.2807 108.721 39.8145 111.447 42.8452C114.173 45.8759 117.514 47.4604 121.446 47.5862C125.654 47.8125 129.247 46.3538 132.212 43.2099C135.189 40.066 136.633 36.3813 136.546 32.1685Z" fill="#212121"/>
<path d="M190.323 51.6738H175.525C171.593 51.6738 168.377 50.5798 165.878 48.3916C163.378 46.2034 162.122 43.047 162.122 38.9348V0.0510254H167.209V39.815C167.209 41.6008 168.063 43.3614 169.759 45.1094C170.84 46.1783 172.736 46.7191 175.462 46.7191H190.298V51.6738H190.323Z" fill="#212121"/>
<path d="M225.81 32.4944V51.6597H220.723V45.6988C216.59 50.4398 211.515 52.716 205.51 52.54C200.259 52.3639 195.8 50.3266 192.107 46.4408C188.414 42.5549 186.567 37.9271 186.567 32.5699C186.567 27.2127 188.552 22.195 192.521 18.196C196.491 14.197 201.252 12.3106 206.779 12.537C212.13 12.713 216.69 14.7629 220.434 18.6739C224.19 22.5849 225.974 27.2001 225.785 32.5196L225.81 32.4944ZM220.723 32.1298C220.635 28.1056 219.203 24.6473 216.427 21.78C213.65 18.9128 210.321 17.4792 206.427 17.4792C202.533 17.4792 198.89 18.9128 196.026 21.78C193.162 24.6473 191.705 28.1181 191.667 32.1926C191.579 36.2294 192.911 39.7506 195.662 42.7687C198.413 45.7868 201.729 47.3965 205.623 47.5726C209.832 47.7486 213.424 46.2899 216.389 43.1711C219.366 40.0524 220.811 36.3803 220.723 32.1172V32.1298Z" fill="#212121"/>
<path d="M270.342 32.5708C270.342 37.928 268.495 42.5558 264.79 46.4417C261.084 50.3275 256.574 52.3648 251.261 52.5408C245.771 52.7169 240.997 50.7928 236.927 46.7812C232.87 42.757 230.898 38.0035 231.036 32.5079V0H236.123V19.3035C239.867 14.965 244.54 12.7139 250.155 12.5379C255.632 12.3115 260.368 14.2104 264.35 18.2346C268.332 22.2588 270.33 27.0375 270.33 32.5834L270.342 32.5708ZM265.255 32.2061C265.167 28.1819 263.697 24.7111 260.845 21.8312C257.994 18.9389 254.539 17.4927 250.457 17.4927C246.374 17.4927 243.208 18.9263 240.432 21.7935C237.656 24.6607 236.211 28.1065 236.123 32.1432C235.985 36.3938 237.43 40.0784 240.432 43.1972C243.434 46.3159 247.027 47.7747 251.198 47.5986C255.142 47.4226 258.484 45.8255 261.222 42.8325C263.961 39.8269 265.305 36.2932 265.255 32.2187V32.2061Z" fill="#212121"/>
<path d="M297.464 40.2796C297.728 43.7253 296.522 46.7057 293.847 49.2334C291.171 51.7611 288.093 52.9055 284.601 52.6791C281.385 52.4528 278.697 51.1575 276.536 48.7933C274.376 46.4291 273.283 43.6121 273.283 40.3425H278.571V41.6252C278.571 42.933 279.287 44.2912 280.719 45.6871C282.151 47.083 283.671 47.7621 285.267 47.7118C287.415 47.6615 289.111 47.0201 290.354 45.7626C291.472 44.593 292.05 43.0714 292.1 41.185C292.151 37.9154 290.292 35.6769 286.536 34.4571L282.051 33.0361C277.365 31.5647 274.916 28.3705 274.69 23.4535C274.552 20.4982 275.556 17.9705 277.679 15.8704C279.802 13.7702 282.365 12.651 285.367 12.5127C287.968 12.3744 290.392 13.2169 292.653 15.0278C294.914 16.8387 296.133 19.0897 296.309 21.7683V22.9127H290.957V22.0324C290.957 20.6742 290.392 19.5802 289.249 18.7376C288.106 17.895 286.799 17.48 285.33 17.48C283.898 17.5303 282.666 18.0459 281.611 19.0268C280.556 20.0203 280.016 21.2527 279.966 22.7366C279.79 25.4781 281.41 27.4273 284.852 28.5969L289.274 30.0808C294.362 31.8288 297.088 35.2242 297.439 40.267L297.464 40.2796Z" fill="#212121"/>
</svg>
